<svg width="137" height="52" viewBox="0 0 137 52" fill="none" xmlns="http://www.w3.org/2000/svg">
<path d="M0 5C0 2.23858 2.23858 0 5 0H132C134.761 0 137 2.23858 137 5V47C137 49.7614 134.761 52 132 52H5C2.23857 52 0 49.7614 0 47V5Z" fill="#8D5CF6"/>
<path d="M26.568 23.09V21.214H31.664V27.598C31.664 28.7647 31.3607 29.6373 30.754 30.216C30.1567 30.7947 29.3867 31.084 28.444 31.084C27.268 31.084 26.2413 30.6313 25.364 29.726L26.498 28.158C27.086 28.7927 27.702 29.11 28.346 29.11C28.654 29.11 28.9153 28.9933 29.13 28.76C29.354 28.5173 29.466 28.158 29.466 27.682V23.09H26.568ZM41.6733 26.058C41.6733 25.1807 41.3933 24.434 40.8333 23.818C40.2733 23.202 39.5826 22.894 38.7613 22.894C37.9493 22.894 37.2633 23.202 36.7033 23.818C36.1433 24.434 35.8633 25.1807 35.8633 26.058C35.8633 26.926 36.1433 27.668 36.7033 28.284C37.2633 28.8907 37.9493 29.194 38.7613 29.194C39.5826 29.194 40.2733 28.8907 40.8333 28.284C41.3933 27.668 41.6733 26.926 41.6733 26.058ZM42.4153 29.656C41.426 30.6173 40.208 31.098 38.7613 31.098C37.3146 31.098 36.0966 30.6173 35.1073 29.656C34.118 28.6853 33.6233 27.4813 33.6233 26.044C33.6233 24.6067 34.118 23.4073 35.1073 22.446C36.0966 21.4753 37.3146 20.99 38.7613 20.99C40.208 20.99 41.426 21.4753 42.4153 22.446C43.4046 23.4073 43.8993 24.6067 43.8993 26.044C43.8993 27.4813 43.4046 28.6853 42.4153 29.656ZM45.9497 21.214H48.1337V31H45.9497V21.214ZM57.5895 21.214H59.7735V31H57.5895L52.9275 24.868V31H50.7435V21.214H52.7875L57.5895 27.514V21.214ZM68.8682 28.48C69.2322 28.928 69.7222 29.152 70.3382 29.152C70.9542 29.152 71.4396 28.928 71.7942 28.48C72.1582 28.0227 72.3402 27.402 72.3402 26.618V21.214H74.5242V26.688C74.5242 28.1067 74.1322 29.1987 73.3482 29.964C72.5642 30.72 71.5609 31.098 70.3382 31.098C69.1156 31.098 68.1076 30.7153 67.3142 29.95C66.5302 29.1847 66.1382 28.0973 66.1382 26.688V21.214H68.3222V26.618C68.3222 27.402 68.5042 28.0227 68.8682 28.48ZM80.1419 22.908C79.7779 22.908 79.4886 22.9967 79.2739 23.174C79.0686 23.342 78.9659 23.5707 78.9659 23.86C78.9659 24.14 79.0919 24.364 79.3439 24.532C79.6052 24.7 80.1979 24.9007 81.1219 25.134C82.0552 25.358 82.7786 25.6987 83.2919 26.156C83.8052 26.6133 84.0619 27.2807 84.0619 28.158C84.0619 29.0353 83.7306 29.7493 83.0679 30.3C82.4146 30.8413 81.5512 31.112 80.4779 31.112C78.9286 31.112 77.5332 30.538 76.2919 29.39L77.5939 27.794C78.6486 28.718 79.6239 29.18 80.5199 29.18C80.9212 29.18 81.2339 29.096 81.4579 28.928C81.6912 28.7507 81.8079 28.5173 81.8079 28.228C81.8079 27.9293 81.6866 27.696 81.4439 27.528C81.2012 27.3507 80.7206 27.1733 80.0019 26.996C78.8632 26.7253 78.0279 26.3753 77.4959 25.946C76.9732 25.5073 76.7119 24.826 76.7119 23.902C76.7119 22.9687 77.0432 22.25 77.7059 21.746C78.3779 21.242 79.2132 20.99 80.2119 20.99C80.8652 20.99 81.5186 21.102 82.1719 21.326C82.8252 21.55 83.3946 21.8673 83.8799 22.278L82.7739 23.874C81.9246 23.23 81.0472 22.908 80.1419 22.908Z" fill="white"/>
<g clip-path="url(#clip0_2689_3059)">
<path fill-rule="evenodd" clip-rule="evenodd" d="M100 26C100 25.8106 100.079 25.6289 100.22 25.495C100.36 25.3611 100.551 25.2858 100.75 25.2858H109.438L106.218 22.2207C106.077 22.0866 105.998 21.9047 105.998 21.7151C105.998 21.5254 106.077 21.3435 106.218 21.2094C106.359 21.0753 106.55 21 106.749 21C106.948 21 107.139 21.0753 107.28 21.2094L111.78 25.4944C111.85 25.5607 111.905 25.6395 111.943 25.7263C111.981 25.8131 112 25.9061 112 26C112 26.0939 111.981 26.1869 111.943 26.2737C111.905 26.3605 111.85 26.4393 111.78 26.5056L107.28 30.7906C107.139 30.9247 106.948 31 106.749 31C106.55 31 106.359 30.9247 106.218 30.7906C106.077 30.6565 105.998 30.4746 105.998 30.2849C105.998 30.0953 106.077 29.9134 106.218 29.7793L109.438 26.7142H100.75C100.551 26.7142 100.36 26.6389 100.22 26.505C100.079 26.3711 100 26.1894 100 26Z" fill="white"/>
</g>
<defs>
<clipPath id="clip0_2689_3059">
<rect width="12" height="10" fill="white" transform="translate(100 21)"/>
</clipPath>
</defs>
</svg>
