<svg width="132" height="23" viewBox="0 0 132 23" fill="none" xmlns="http://www.w3.org/2000/svg">
<g clip-path="url(#clip0_2689_3449)">
<path d="M21.0964 8.41964C21.0387 8.24983 20.9326 8.10061 20.7911 7.99043C20.6496 7.88024 20.479 7.81389 20.3002 7.79959L15.0711 7.38408L12.8083 2.37506C12.7362 2.21373 12.619 2.07671 12.4708 1.98052C12.3225 1.88434 12.1496 1.8331 11.973 1.83301C11.7963 1.83291 11.6233 1.88395 11.475 1.97998C11.3267 2.076 11.2093 2.2129 11.1371 2.37415L8.87424 7.38408L3.64509 7.79959C3.4694 7.8135 3.30144 7.87774 3.1613 7.98462C3.02116 8.0915 2.91478 8.23648 2.85489 8.40224C2.79499 8.56799 2.78412 8.74749 2.82356 8.91926C2.86301 9.09103 2.95111 9.2478 3.07732 9.37081L6.94163 13.1379L5.57495 19.0559C5.53345 19.235 5.54675 19.4225 5.61313 19.594C5.6795 19.7655 5.79588 19.913 5.94717 20.0175C6.09845 20.1221 6.27766 20.1787 6.46153 20.1801C6.64541 20.1815 6.82546 20.1276 6.97832 20.0254L11.9727 16.6958L16.967 20.0254C17.1232 20.1291 17.3075 20.1825 17.495 20.1784C17.6825 20.1743 17.8642 20.1129 18.0158 20.0024C18.1673 19.8919 18.2814 19.7377 18.3426 19.5604C18.4039 19.3832 18.4094 19.1914 18.3584 19.0109L16.6808 13.1406L20.8414 9.39649C21.1138 9.15067 21.2138 8.76727 21.0964 8.41964Z" fill="#F3CD03"/>
<path d="M48.1115 8.41964C48.0539 8.24983 47.9478 8.10061 47.8063 7.99043C47.6648 7.88024 47.4941 7.81389 47.3154 7.79959L42.0862 7.38408L39.8234 2.37506C39.7513 2.21373 39.6341 2.07671 39.4859 1.98052C39.3377 1.88434 39.1648 1.8331 38.9881 1.83301C38.8114 1.83291 38.6385 1.88395 38.4901 1.97998C38.3418 2.076 38.2244 2.2129 38.1522 2.37415L35.8894 7.38408L30.6602 7.79959C30.4845 7.8135 30.3166 7.87774 30.1764 7.98462C30.0363 8.0915 29.9299 8.23648 29.87 8.40224C29.8101 8.56799 29.7993 8.74749 29.8387 8.91926C29.8781 9.09103 29.9662 9.2478 30.0925 9.37081L33.9568 13.1379L32.5901 19.0559C32.5486 19.235 32.5619 19.4225 32.6283 19.594C32.6946 19.7655 32.811 19.913 32.9623 20.0175C33.1136 20.1221 33.2928 20.1787 33.4767 20.1801C33.6605 20.1815 33.8406 20.1276 33.9935 20.0254L38.9878 16.6958L43.9821 20.0254C44.1384 20.1291 44.3226 20.1825 44.5101 20.1784C44.6976 20.1743 44.8794 20.1129 45.0309 20.0024C45.1824 19.8919 45.2965 19.7377 45.3578 19.5604C45.419 19.3832 45.4246 19.1914 45.3736 19.0109L43.696 13.1406L47.8565 9.39649C48.129 9.15067 48.2289 8.76727 48.1115 8.41964Z" fill="#F3CD03"/>
<path d="M75.1228 8.41964C75.0651 8.24983 74.959 8.10061 74.8175 7.99043C74.676 7.88024 74.5054 7.81389 74.3266 7.79959L69.0974 7.38408L66.8346 2.37506C66.7626 2.21373 66.6453 2.07671 66.4971 1.98052C66.3489 1.88434 66.176 1.8331 65.9993 1.83301C65.8226 1.83291 65.6497 1.88395 65.5014 1.97998C65.353 2.076 65.2357 2.2129 65.1634 2.37415L62.9006 7.38408L57.6715 7.79959C57.4958 7.8135 57.3278 7.87774 57.1877 7.98462C57.0475 8.0915 56.9411 8.23648 56.8813 8.40224C56.8214 8.56799 56.8105 8.74749 56.8499 8.91926C56.8894 9.09103 56.9775 9.2478 57.1037 9.37081L60.968 13.1379L59.6013 19.0559C59.5598 19.235 59.5731 19.4225 59.6395 19.594C59.7059 19.7655 59.8222 19.913 59.9735 20.0175C60.1248 20.1221 60.304 20.1787 60.4879 20.1801C60.6718 20.1815 60.8518 20.1276 61.0047 20.0254L65.999 16.6958L70.9934 20.0254C71.1496 20.1291 71.3339 20.1825 71.5214 20.1784C71.7088 20.1743 71.8906 20.1129 72.0421 20.0024C72.1937 19.8919 72.3077 19.7377 72.369 19.5604C72.4303 19.3832 72.4358 19.1914 72.3848 19.0109L70.7072 13.1406L74.8678 9.39649C75.1402 9.15067 75.2402 8.76727 75.1228 8.41964Z" fill="#F3CD03"/>
<path d="M102.136 8.41964C102.079 8.24983 101.973 8.10061 101.831 7.99043C101.69 7.88024 101.519 7.81389 101.34 7.79959L96.1111 7.38408L93.8483 2.37506C93.7762 2.21373 93.659 2.07671 93.5108 1.98052C93.3626 1.88434 93.1897 1.8331 93.013 1.83301C92.8363 1.83291 92.6634 1.88395 92.515 1.97998C92.3667 2.076 92.2493 2.2129 92.1771 2.37415L89.9143 7.38408L84.6851 7.79959C84.5094 7.8135 84.3415 7.87774 84.2013 7.98462C84.0612 8.0915 83.9548 8.23648 83.8949 8.40224C83.835 8.56799 83.8242 8.74749 83.8636 8.91926C83.9031 9.09103 83.9912 9.2478 84.1174 9.37081L87.9817 13.1379L86.615 19.0559C86.5735 19.235 86.5868 19.4225 86.6532 19.594C86.7195 19.7655 86.8359 19.913 86.9872 20.0175C87.1385 20.1221 87.3177 20.1787 87.5016 20.1801C87.6854 20.1815 87.8655 20.1276 88.0184 20.0254L93.0127 16.6958L98.007 20.0254C98.1633 20.1291 98.3475 20.1825 98.535 20.1784C98.7225 20.1743 98.9043 20.1129 99.0558 20.0024C99.2073 19.8919 99.3214 19.7377 99.3827 19.5604C99.4439 19.3832 99.4495 19.1914 99.3985 19.0109L97.7209 13.1406L101.881 9.39649C102.154 9.15067 102.254 8.76727 102.136 8.41964Z" fill="#F3CD03"/>
<path d="M114.998 13.1374L113.631 19.0554C113.589 19.2346 113.601 19.4224 113.667 19.5943C113.734 19.7662 113.85 19.9141 114.001 20.0188C114.153 20.1235 114.332 20.1801 114.516 20.1812C114.701 20.1823 114.881 20.1278 115.033 20.0249L120.028 16.6954L125.022 20.0249C125.178 20.1287 125.363 20.1821 125.55 20.178C125.738 20.1739 125.919 20.1124 126.071 20.0019C126.222 19.8915 126.337 19.7372 126.398 19.56C126.459 19.3827 126.465 19.191 126.414 19.0105L124.736 13.1402L128.897 9.39603C129.03 9.27605 129.125 9.11963 129.17 8.94614C129.216 8.77264 129.209 8.58967 129.151 8.41986C129.094 8.25004 128.988 8.10083 128.846 7.99067C128.705 7.88051 128.534 7.81423 128.355 7.80004L123.126 7.38362L120.863 2.3746C120.791 2.21331 120.674 2.07635 120.526 1.98025C120.377 1.88415 120.205 1.83301 120.028 1.83301C119.851 1.83301 119.678 1.88415 119.53 1.98025C119.382 2.07635 119.264 2.21331 119.192 2.3746L116.929 7.38362L111.7 7.79913C111.525 7.81305 111.357 7.87729 111.216 7.98416C111.076 8.09104 110.97 8.23602 110.91 8.40178C110.85 8.56753 110.839 8.74703 110.879 8.9188C110.918 9.09057 111.006 9.24734 111.132 9.37035L114.998 13.1374ZM117.615 9.16947C117.778 9.15658 117.936 9.09987 118.07 9.0053C118.204 8.91073 118.31 8.78179 118.378 8.63198L120.028 4.98047L121.678 8.63198C121.745 8.78179 121.852 8.91073 121.986 9.0053C122.12 9.09987 122.277 9.15658 122.441 9.16947L126.084 9.4584L123.084 12.1587C122.824 12.3936 122.72 12.7549 122.815 13.0925L123.965 17.1146L120.538 14.8297C120.387 14.7288 120.21 14.6749 120.029 14.6749C119.848 14.6749 119.671 14.7288 119.521 14.8297L115.94 17.2173L116.903 13.0475C116.938 12.8942 116.933 12.7343 116.889 12.5833C116.845 12.4323 116.762 12.2953 116.65 12.1853L113.863 9.46849L117.615 9.16947Z" fill="#F3CD03"/>
</g>
<defs>
<clipPath id="clip0_2689_3449">
<rect width="130.068" height="22.0136" fill="white" transform="translate(0.96582)"/>
</clipPath>
</defs>
</svg>
