<svg width="142" height="44" viewBox="0 0 142 44" fill="none" xmlns="http://www.w3.org/2000/svg">
<path d="M21.704 27V17.214H23.888V25.054H28.06V27H21.704ZM36.175 25.908C35.3257 26.7107 34.327 27.112 33.179 27.112C32.0404 27.112 31.0977 26.762 30.351 26.062C29.6044 25.3527 29.231 24.4053 29.231 23.22C29.231 22.0347 29.609 21.092 30.365 20.392C31.1304 19.692 32.031 19.342 33.067 19.342C34.103 19.342 34.9804 19.6547 35.699 20.28C36.427 20.9053 36.791 21.764 36.791 22.856V23.976H31.303C31.3684 24.3867 31.583 24.7227 31.947 24.984C32.311 25.2453 32.7217 25.376 33.179 25.376C33.9164 25.376 34.523 25.1287 34.999 24.634L36.175 25.908ZM34.663 22.478C34.6164 22.03 34.4484 21.6847 34.159 21.442C33.8697 21.1993 33.515 21.078 33.095 21.078C32.6844 21.078 32.3064 21.204 31.961 21.456C31.6157 21.708 31.415 22.0487 31.359 22.478H34.663ZM44.9033 27H42.9293V26.09C42.388 26.7713 41.716 27.112 40.9133 27.112C40.12 27.112 39.4527 26.8833 38.9113 26.426C38.37 25.9593 38.0993 25.3433 38.0993 24.578C38.0993 23.8033 38.3793 23.2247 38.9393 22.842C39.4993 22.4593 40.2647 22.268 41.2353 22.268H42.8033V22.226C42.8033 21.4233 42.3787 21.022 41.5293 21.022C41.1653 21.022 40.778 21.0967 40.3673 21.246C39.966 21.386 39.6253 21.5633 39.3453 21.778L38.4073 20.42C39.3967 19.7013 40.526 19.342 41.7953 19.342C42.71 19.342 43.4567 19.5707 44.0353 20.028C44.614 20.4853 44.9033 21.2087 44.9033 22.198V27ZM42.7893 24.13V23.766H41.4733C40.6333 23.766 40.2133 24.0273 40.2133 24.55C40.2133 24.8207 40.3113 25.0307 40.5073 25.18C40.7127 25.32 41.002 25.39 41.3753 25.39C41.7487 25.39 42.0753 25.278 42.3553 25.054C42.6447 24.8207 42.7893 24.5127 42.7893 24.13ZM50.9798 21.316C50.3545 21.316 49.8878 21.54 49.5798 21.988C49.2718 22.4267 49.1178 23.01 49.1178 23.738V27H47.0178V19.468H49.1178V20.462C49.3885 20.154 49.7245 19.8927 50.1258 19.678C50.5365 19.4633 50.9518 19.3513 51.3718 19.342L51.3858 21.316H50.9798ZM55.0737 22.8V27H52.9737V19.468H55.0737V20.308C55.7084 19.664 56.4224 19.342 57.2157 19.342C58.009 19.342 58.6717 19.622 59.2037 20.182C59.745 20.742 60.0157 21.4887 60.0157 22.422V27H57.9157V22.744C57.9157 21.5867 57.491 21.008 56.6417 21.008C56.2217 21.008 55.853 21.162 55.5357 21.47C55.2277 21.7687 55.0737 22.212 55.0737 22.8ZM74.9805 20.84L72.3345 26.188H71.0325L68.4005 20.84V27H66.2165V17.214H69.1705L71.6905 22.59L74.2245 17.214H77.1645V27H74.9805V20.84ZM81.2439 23.234C81.2439 23.85 81.4166 24.354 81.7619 24.746C82.1166 25.1287 82.5646 25.32 83.1059 25.32C83.6566 25.32 84.1046 25.1287 84.4499 24.746C84.8046 24.354 84.9819 23.85 84.9819 23.234C84.9819 22.618 84.8046 22.114 84.4499 21.722C84.1046 21.33 83.6566 21.134 83.1059 21.134C82.5646 21.134 82.1166 21.33 81.7619 21.722C81.4166 22.114 81.2439 22.618 81.2439 23.234ZM87.0959 23.234C87.0959 24.326 86.7179 25.2453 85.9619 25.992C85.2059 26.7387 84.2539 27.112 83.1059 27.112C81.9673 27.112 81.0199 26.7387 80.2639 25.992C79.5079 25.2453 79.1299 24.326 79.1299 23.234C79.1299 22.142 79.5079 21.2227 80.2639 20.476C81.0199 19.72 81.9673 19.342 83.1059 19.342C84.2539 19.342 85.2059 19.72 85.9619 20.476C86.7179 21.2227 87.0959 22.142 87.0959 23.234ZM92.8177 21.316C92.1924 21.316 91.7257 21.54 91.4177 21.988C91.1097 22.4267 90.9557 23.01 90.9557 23.738V27H88.8557V19.468H90.9557V20.462C91.2264 20.154 91.5624 19.8927 91.9637 19.678C92.3744 19.4633 92.7897 19.3513 93.2097 19.342L93.2237 21.316H92.8177ZM101.336 25.908C100.486 26.7107 99.4876 27.112 98.3396 27.112C97.2009 27.112 96.2582 26.762 95.5116 26.062C94.7649 25.3527 94.3916 24.4053 94.3916 23.22C94.3916 22.0347 94.7696 21.092 95.5256 20.392C96.2909 19.692 97.1916 19.342 98.2276 19.342C99.2636 19.342 100.141 19.6547 100.86 20.28C101.588 20.9053 101.952 21.764 101.952 22.856V23.976H96.4636C96.5289 24.3867 96.7436 24.7227 97.1076 24.984C97.4716 25.2453 97.8822 25.376 98.3396 25.376C99.0769 25.376 99.6836 25.1287 100.16 24.634L101.336 25.908ZM99.8236 22.478C99.7769 22.03 99.6089 21.6847 99.3196 21.442C99.0302 21.1993 98.6756 21.078 98.2556 21.078C97.8449 21.078 97.4669 21.204 97.1216 21.456C96.7762 21.708 96.5756 22.0487 96.5196 22.478H99.8236Z" fill="#8D5CF6"/>
<g clip-path="url(#clip0_2689_3184)">
<path d="M112.5 27.7143L118.214 22L112.5 16.2857L113.643 14L121.643 22L113.643 30L112.5 27.7143Z" fill="#8D5CF6"/>
</g>
<path d="M1 22C1 10.1259 10.6259 0.5 22.5 0.5H119.643C131.517 0.5 141.143 10.1259 141.143 22C141.143 33.8741 131.517 43.5 119.643 43.5H22.5C10.6259 43.5 1 33.8741 1 22Z" stroke="#8D5CF6"/>
<defs>
<clipPath id="clip0_2689_3184">
<rect width="9.14286" height="16" fill="white" transform="translate(112.5 14)"/>
</clipPath>
</defs>
</svg>
